<svg xmlns="http://www.w3.org/2000/svg" viewBox="0 0 175.91 175.6"><defs><style>.cls-1{fill:#fff;}</style></defs><g id="Layer_2" data-name="Layer 2"><g id="Layer_1-2" data-name="Layer 1"><path class="cls-1" d="M39.93,28.65a9.33,9.33,0,0,1-2.6,1.56,4,4,0,0,1-2.35.18A3.85,3.85,0,0,1,33,29l-.07-.08,2.48-2,.23.27a1,1,0,0,0,.49.36,1.08,1.08,0,0,0,.71-.2,10.19,10.19,0,0,0,1.28-.93,13.1,13.1,0,0,0,1.07-.95.94.94,0,0,0,.32-.53.54.54,0,0,0-.15-.39.51.51,0,0,0-.47-.21,2.49,2.49,0,0,0-.87.4l-3.06,1.89a4.89,4.89,0,0,1-1.73.67,2.71,2.71,0,0,1-1.53-.17,3.35,3.35,0,0,1-1.28-1,3.27,3.27,0,0,1-.63-1.23,3.23,3.23,0,0,1,0-1.52,5.07,5.07,0,0,1,.77-1.73,8.83,8.83,0,0,1,1.82-1.9A7.88,7.88,0,0,1,35,18.21a3.82,3.82,0,0,1,2.27,0,4.14,4.14,0,0,1,1.85,1.34l.06.08-2.48,2-.16-.2a1.06,1.06,0,0,0-.54-.39,1.14,1.14,0,0,0-.77.19,9.05,9.05,0,0,0-1.31.94A7.62,7.62,0,0,0,33,23a1.12,1.12,0,0,0-.3.55.53.53,0,0,0,.13.42.56.56,0,0,0,.25.18.51.51,0,0,0,.32,0,2.8,2.8,0,0,0,.45-.21l3.1-1.85A5.33,5.33,0,0,1,39,21.28a2.84,2.84,0,0,1,1.57.24,3.36,3.36,0,0,1,1.86,2.64A3.76,3.76,0,0,1,42,26.29,7.74,7.74,0,0,1,39.93,28.65Z"/><path class="cls-1" d="M51.35,21A7.39,7.39,0,0,1,48,22a5.09,5.09,0,0,1-2.88-.75A6.22,6.22,0,0,1,43,18.86a6.24,6.24,0,0,1-.83-3.08A5.11,5.11,0,0,1,43.1,13a7.41,7.41,0,0,1,2.63-2.26,7.55,7.55,0,0,1,3.38-1,5.09,5.09,0,0,1,2.88.75,6.16,6.16,0,0,1,2.14,2.36A6.13,6.13,0,0,1,55,15.86,5,5,0,0,1,54,18.69,7.45,7.45,0,0,1,51.35,21ZM49.88,18.3a5.72,5.72,0,0,0,1.48-1.07,1.5,1.5,0,0,0,.39-1.17,4.52,4.52,0,0,0-.6-1.65A4.37,4.37,0,0,0,50.08,13a1.49,1.49,0,0,0-1.2-.3,5.89,5.89,0,0,0-1.69.67,5.54,5.54,0,0,0-1.45,1,1.43,1.43,0,0,0-.37,1.16A4.65,4.65,0,0,0,46,17.23a4.84,4.84,0,0,0,1,1.41,1.41,1.41,0,0,0,1.17.31A5.15,5.15,0,0,0,49.88,18.3Z"/><path class="cls-1" d="M62.07,15.84l-3.06.9L55.79,5.82,60,4.59l3.34,3.95L65.2,11l.21-.06.19-3.13.58-5.09,4.15-1.23,3.22,10.93-3.06.9L69.16,8.84,68.73,7l-.21.07-.08,2L68,13.4l-3.72,1.1-2.77-3.39L60.3,9.47l-.21.06.65,1.79Z"/><path class="cls-1" d="M79.33,12l-3.19.28L75.15.89,78.33.61Zm6.14-9.09-9.21.81L76,.81,85.22,0Zm.12,4.22-9,.79L76.38,5l9-.79Zm.63,4.27L77,12.16l-.25-2.87L86,8.48Z"/><path class="cls-1" d="M99.08,12.48a7.41,7.41,0,0,1-3.25-1.21A5.06,5.06,0,0,1,94,8.94a6.3,6.3,0,0,1-.29-3.18,6.22,6.22,0,0,1,1.19-3,5.11,5.11,0,0,1,2.45-1.71,7.52,7.52,0,0,1,3.46-.22,7.6,7.6,0,0,1,3.31,1.22A5,5,0,0,1,106,4.43a6.14,6.14,0,0,1,.29,3.17,6.12,6.12,0,0,1-1.19,3,5.09,5.09,0,0,1-2.44,1.71A7.54,7.54,0,0,1,99.08,12.48Zm.44-3a6,6,0,0,0,1.82,0,1.5,1.5,0,0,0,1-.7,4.44,4.44,0,0,0,.52-1.68,4.61,4.61,0,0,0,0-1.76,1.5,1.5,0,0,0-.78-1,5.63,5.63,0,0,0-1.75-.49,5.49,5.49,0,0,0-1.8,0,1.43,1.43,0,0,0-1,.69,4.89,4.89,0,0,0-.49,1.69,4.63,4.63,0,0,0,0,1.75,1.41,1.41,0,0,0,.74,1A5.16,5.16,0,0,0,99.52,9.45Z"/><path class="cls-1" d="M110.78,15l-3-1,3.66-10.79,3,1Zm7.64-1.58-8.58-2.92.92-2.7,8.58,2.91Zm1.71-4.24-8.82-3,.92-2.72,8.82,3Z"/><path class="cls-1" d="M128.6,23.42A7.4,7.4,0,0,1,126.12,21a5.05,5.05,0,0,1-.74-2.88,6.14,6.14,0,0,1,1-3,6.06,6.06,0,0,1,2.29-2.22,5,5,0,0,1,2.92-.57,7.41,7.41,0,0,1,3.25,1.2A7.6,7.6,0,0,1,137.41,16a5.11,5.11,0,0,1,.74,2.89,6.17,6.17,0,0,1-1,3,6.13,6.13,0,0,1-2.29,2.22,5.09,5.09,0,0,1-2.92.57A7.66,7.66,0,0,1,128.6,23.42Zm1.64-2.59a5.65,5.65,0,0,0,1.64.77,1.5,1.5,0,0,0,1.22-.22,4.66,4.66,0,0,0,1.15-1.33,4.51,4.51,0,0,0,.71-1.61,1.48,1.48,0,0,0-.32-1.19,5.71,5.71,0,0,0-1.4-1.16,5.44,5.44,0,0,0-1.64-.76,1.38,1.38,0,0,0-1.18.24,4.92,4.92,0,0,0-1.14,1.34,4.81,4.81,0,0,0-.72,1.59,1.43,1.43,0,0,0,.29,1.18A5.27,5.27,0,0,0,130.24,20.83Z"/><path class="cls-1" d="M140.05,32.27a7.57,7.57,0,0,1-2-2.67,4.08,4.08,0,0,1-.22-2.56,5.24,5.24,0,0,1,1.33-2.35l4.52-4.83,2.34,2.19-4.35,4.64a3.23,3.23,0,0,0-.72,1.07,1.21,1.21,0,0,0,.12,1A5.57,5.57,0,0,0,142.17,30a5.81,5.81,0,0,0,1.33,1,1.22,1.22,0,0,0,1,0,3.13,3.13,0,0,0,1-.79l4.35-4.64,2.33,2.19-4.52,4.82a5.25,5.25,0,0,1-2.26,1.49,4.19,4.19,0,0,1-2.57-.06A7.67,7.67,0,0,1,140.05,32.27Z"/><path class="cls-1" d="M148,40.61,146.08,38l9.15-6.78,4,5.34a6.73,6.73,0,0,1,1.18,2.28,3.19,3.19,0,0,1,0,1.94,3.3,3.3,0,0,1-1.22,1.55,3.63,3.63,0,0,1-1.43.67,2.49,2.49,0,0,1-1.44-.17,4.54,4.54,0,0,1-1.48-1.1l-.14.1a2.45,2.45,0,0,1,.23,1.4,4.75,4.75,0,0,1-.45,1.21L153,47.32l-2.19-3,1.43-2.75a2.61,2.61,0,0,0,.28-.73,1.21,1.21,0,0,0-.08-.67,4,4,0,0,0-.51-.84l-.78-1.06Zm6.84-5.07L153,36.89l2,2.74a1.64,1.64,0,0,0,.75.67c.22.08.53,0,.92-.32s.55-.53.55-.77a1.59,1.59,0,0,0-.41-.92Z"/><path class="cls-1" d="M158.72,59l-1.66-4.45,9.83-6.22,1.25,3.34-5.09,2.93-2.3,1.18.08.21,2.56-.47,6-.6L171,59.44l-4.94,3.34-2.26,1.28.08.2,2.52-.58,5.81-1,1.23,3.28L161.9,67.49l-1.67-4.44,4.16-2.83,3.08-1.95-.08-.21-3.62.51Z"/><path class="cls-1" d="M163.56,78.21a7.43,7.43,0,0,1,.29-3.45,5.16,5.16,0,0,1,1.75-2.41,6.84,6.84,0,0,1,6.16-.78,5.16,5.16,0,0,1,2.3,1.9,7.38,7.38,0,0,1,1.14,3.27,7.55,7.55,0,0,1-.28,3.52,5.09,5.09,0,0,1-1.75,2.41,6.84,6.84,0,0,1-6.16.78,5.06,5.06,0,0,1-2.29-1.89A7.55,7.55,0,0,1,163.56,78.21Zm3-.38a5.93,5.93,0,0,0,.45,1.76,1.54,1.54,0,0,0,.95.8,5.89,5.89,0,0,0,3.45-.44,1.46,1.46,0,0,0,.71-1,5.46,5.46,0,0,0,0-1.82,5.17,5.17,0,0,0-.45-1.74,1.42,1.42,0,0,0-.93-.76,5,5,0,0,0-1.76,0,4.73,4.73,0,0,0-1.69.47,1.42,1.42,0,0,0-.73,1A5.34,5.34,0,0,0,166.6,77.83Z"/><path class="cls-1" d="M164.35,90.16l.19-3.19,11.37.67-.39,6.63a7,7,0,0,1-.56,2.51,3.17,3.17,0,0,1-1.27,1.46,3.29,3.29,0,0,1-1.92.41,3.52,3.52,0,0,1-1.53-.41,2.37,2.37,0,0,1-1-1,4.67,4.67,0,0,1-.43-1.8h-.17a2.41,2.41,0,0,1-.73,1.23,4.84,4.84,0,0,1-1.11.64l-2.94,1.24.22-3.68,2.86-1.2a2.46,2.46,0,0,0,.69-.38,1.16,1.16,0,0,0,.36-.56,3.67,3.67,0,0,0,.15-1l.08-1.3Zm8.5.5-2.25-.13-.2,3.41a1.78,1.78,0,0,0,.14,1c.13.2.43.32.92.35a1.11,1.11,0,0,0,.91-.24,1.6,1.6,0,0,0,.28-1Z"/><path class="cls-1" d="M160.68,112.24l.9-3.72,4.56-1.62.78-3.17,3,.74-.77,3.14,3.46,3.69-.91,3.72-4.5-5.16Zm2.09-8.56.75-3.1,11.07,2.7-.76,3.1Z"/><path class="cls-1" d="M157.54,119.1a9.3,9.3,0,0,1,1.61-2.56,4,4,0,0,1,2-1.23,3.88,3.88,0,0,1,2.42.34l.1,0-1.3,2.92-.33-.14a.9.9,0,0,0-.6-.09,1,1,0,0,0-.54.49,10.87,10.87,0,0,0-.72,1.41,11.07,11.07,0,0,0-.53,1.33.93.93,0,0,0,0,.62.56.56,0,0,0,.31.27.49.49,0,0,0,.51,0,2.37,2.37,0,0,0,.6-.75l1.88-3.07a4.82,4.82,0,0,1,1.24-1.38,2.73,2.73,0,0,1,1.44-.53,3.26,3.26,0,0,1,1.6.32,3.12,3.12,0,0,1,1.11.81,3.21,3.21,0,0,1,.72,1.34,4.87,4.87,0,0,1,.09,1.9,9,9,0,0,1-.76,2.51,7.68,7.68,0,0,1-1.68,2.54,3.71,3.71,0,0,1-2,1,4,4,0,0,1-2.25-.35l-.09,0,1.3-2.92.23.11a1.08,1.08,0,0,0,.66.1,1.16,1.16,0,0,0,.6-.52,9,9,0,0,0,.75-1.42,7.8,7.8,0,0,0,.43-1.17,1.16,1.16,0,0,0,0-.63A.53.53,0,0,0,166,120a.53.53,0,0,0-.3-.05.46.46,0,0,0-.28.15,2.68,2.68,0,0,0-.31.4l-1.93,3a5.35,5.35,0,0,1-1.52,1.69,2.8,2.8,0,0,1-1.52.5,3.43,3.43,0,0,1-1.41-.3,3.33,3.33,0,0,1-1.44-1.22,3.75,3.75,0,0,1-.54-2.12A7.7,7.7,0,0,1,157.54,119.1Z"/><path class="cls-1" d="M150.79,137.73l4.19-5.8,2.2,1.6-4.19,5.8Z"/><path class="cls-1" d="M139.07,144.49a9.34,9.34,0,0,1,2.5-1.69,4,4,0,0,1,2.34-.31,3.84,3.84,0,0,1,2.09,1.28l.07.08L143.7,146l-.24-.26a.9.9,0,0,0-.51-.33,1.1,1.1,0,0,0-.7.23,10.27,10.27,0,0,0-1.22,1,12.13,12.13,0,0,0-1,1,1,1,0,0,0-.3.55.63.63,0,0,0,.18.38.51.51,0,0,0,.48.18,2.47,2.47,0,0,0,.84-.45l3-2.05a5.22,5.22,0,0,1,1.69-.77,2.82,2.82,0,0,1,1.53.09,3.32,3.32,0,0,1,1.34.95,3.24,3.24,0,0,1,.81,2.7,5,5,0,0,1-.68,1.78,8.88,8.88,0,0,1-1.71,2,7.84,7.84,0,0,1-2.55,1.65,3.8,3.8,0,0,1-2.27.13,4,4,0,0,1-1.92-1.23l-.07-.08,2.37-2.15.17.19a1.06,1.06,0,0,0,.57.36,1.17,1.17,0,0,0,.75-.23,9.56,9.56,0,0,0,1.26-1,7.61,7.61,0,0,0,.87-.89,1.37,1.37,0,0,0,.28-.56.59.59,0,0,0-.16-.42.52.52,0,0,0-.58-.14,2.85,2.85,0,0,0-.43.24l-3,2a5.54,5.54,0,0,1-2.07.93,2.86,2.86,0,0,1-1.59-.16,3.25,3.25,0,0,1-1.17-.83,3.36,3.36,0,0,1-.83-1.7,3.74,3.74,0,0,1,.35-2.16A7.89,7.89,0,0,1,139.07,144.49Z"/><path class="cls-1" d="M128.07,152.78a7.36,7.36,0,0,1,3.27-1.18,5.06,5.06,0,0,1,2.91.6,6.08,6.08,0,0,1,2.27,2.24,6.15,6.15,0,0,1,1,3,5.07,5.07,0,0,1-.76,2.88,7.6,7.6,0,0,1-2.5,2.4,7.7,7.7,0,0,1-3.33,1.21,5.08,5.08,0,0,1-2.91-.6,6.08,6.08,0,0,1-2.27-2.24,6.15,6.15,0,0,1-1-3,5.07,5.07,0,0,1,.76-2.88A7.61,7.61,0,0,1,128.07,152.78Zm1.62,2.6a5.42,5.42,0,0,0-1.41,1.14,1.47,1.47,0,0,0-.33,1.2,4.34,4.34,0,0,0,.69,1.61,4.47,4.47,0,0,0,1.14,1.34,1.47,1.47,0,0,0,1.21.23,5.7,5.7,0,0,0,1.65-.75A5.55,5.55,0,0,0,134,159a1.42,1.42,0,0,0,.3-1.17,6.06,6.06,0,0,0-1.83-3,1.44,1.44,0,0,0-1.19-.26A5.33,5.33,0,0,0,129.69,155.38Z"/><path class="cls-1" d="M117.66,158.5l3-1.07,3.81,10.73-4.08,1.45-3.56-3.75-2-2.4-.21.08,0,3.13-.29,5.12-4.08,1.45-3.82-10.73,3-1.07,1.58,4.43.52,1.84.21-.08,0-2,.25-4.36,3.66-1.3,3,3.23,1.24,1.57.21-.07-.75-1.76Z"/><path class="cls-1" d="M93.8,164.31,103,163l.41,2.84-9.16,1.32Zm.87,4.23,8.9-1.28.41,2.83-8.91,1.27Zm.34,4.21,9.16-1.32.41,2.85-9.16,1.31Zm5.64-9.42,3.17-.45,1.62,11.27-3.17.46Z"/><path class="cls-1" d="M80.9,163.88a7.34,7.34,0,0,1,3.31,1,5,5,0,0,1,2,2.23,6.21,6.21,0,0,1,.47,3.15,6.28,6.28,0,0,1-1,3,5,5,0,0,1-2.35,1.83,7.41,7.41,0,0,1-3.44.41,7.49,7.49,0,0,1-3.38-1,5,5,0,0,1-2-2.22,6.85,6.85,0,0,1,.56-6.18,5.13,5.13,0,0,1,2.35-1.84A7.54,7.54,0,0,1,80.9,163.88Zm-.28,3.05a5.66,5.66,0,0,0-1.81.06,1.5,1.5,0,0,0-1,.76,4.56,4.56,0,0,0-.42,1.7,4.47,4.47,0,0,0,.11,1.76,1.47,1.47,0,0,0,.82.91,5.7,5.7,0,0,0,1.78.39,5.58,5.58,0,0,0,1.8-.06,1.46,1.46,0,0,0,.94-.75,6.17,6.17,0,0,0,.32-3.46,1.4,1.4,0,0,0-.79-.92A5.49,5.49,0,0,0,80.62,166.93Z"/><path class="cls-1" d="M60.08,168.38l9,2.5-.77,2.77-9-2.5Zm1.46-4.32,8.73,2.44-.76,2.75-8.73-2.43Zm7.55-2,3.08.86-3.06,11L66,173Z"/><path class="cls-1" d="M50.81,154.58a7.46,7.46,0,0,1,2.61,2.28,5,5,0,0,1,.89,2.84,6.14,6.14,0,0,1-.86,3.07,6.25,6.25,0,0,1-2.16,2.35,5.13,5.13,0,0,1-2.89.72,7.39,7.39,0,0,1-3.31-1,7.53,7.53,0,0,1-2.67-2.32,5.11,5.11,0,0,1-.9-2.84,6.78,6.78,0,0,1,3-5.41,5,5,0,0,1,2.88-.73A7.6,7.6,0,0,1,50.81,154.58Zm-1.5,2.67a5.54,5.54,0,0,0-1.68-.68,1.5,1.5,0,0,0-1.2.29,4.29,4.29,0,0,0-1.08,1.39,4.43,4.43,0,0,0-.62,1.65,1.51,1.51,0,0,0,.39,1.17,5.78,5.78,0,0,0,1.46,1.08,5.53,5.53,0,0,0,1.67.67,1.44,1.44,0,0,0,1.17-.3,4.81,4.81,0,0,0,1.06-1.4,4.9,4.9,0,0,0,.64-1.64,1.47,1.47,0,0,0-.36-1.16A5.36,5.36,0,0,0,49.31,157.25Z"/><path class="cls-1" d="M38.92,146.38A7.79,7.79,0,0,1,41,149a4.21,4.21,0,0,1,.36,2.54,5.32,5.32,0,0,1-1.21,2.42L35.94,159l-2.45-2.05,4.09-4.87a3.21,3.21,0,0,0,.66-1.11,1.21,1.21,0,0,0-.18-1,7.2,7.2,0,0,0-2.52-2.12,1.2,1.2,0,0,0-1,0,3.05,3.05,0,0,0-1,.84l-4.09,4.87L27,151.5l4.25-5.07a5.29,5.29,0,0,1,2.17-1.61,4.16,4.16,0,0,1,2.57-.08A7.71,7.71,0,0,1,38.92,146.38Z"/><path class="cls-1" d="M30.52,138.47l2,2.46-8.77,7.27-4.24-5.12a6.73,6.73,0,0,1-1.3-2.21,3.13,3.13,0,0,1-.07-1.93,3.25,3.25,0,0,1,1.12-1.61,3.44,3.44,0,0,1,1.4-.75,2.42,2.42,0,0,1,1.45.09,4.66,4.66,0,0,1,1.54,1l.13-.11a2.45,2.45,0,0,1-.3-1.39A4.57,4.57,0,0,1,23.9,135l1.29-2.9,2.36,2.84-1.28,2.82a2.9,2.9,0,0,0-.24.75,1.19,1.19,0,0,0,.11.66,4.61,4.61,0,0,0,.56.82l.84,1ZM24,143.91l1.75-1.45-2.19-2.63a1.84,1.84,0,0,0-.78-.63c-.23-.06-.53.07-.91.38a1.12,1.12,0,0,0-.51.8,1.73,1.73,0,0,0,.46.9Z"/><path class="cls-1" d="M18.79,120.67l1.9,4.34-9.48,6.76L9.78,128.5l4.93-3.2L16.94,124l-.09-.21-2.54.62-5.92.92-1.93-4.4,4.75-3.61,2.18-1.4-.09-.21-2.48.72-5.74,1.35-1.41-3.21,11.48-2.19,1.9,4.35-4,3-3,2.12.09.2,3.59-.7Z"/><path class="cls-1" d="M12.9,101.76a7.55,7.55,0,0,1-.1,3.47,5.12,5.12,0,0,1-1.62,2.49A6.27,6.27,0,0,1,8.26,109a6.27,6.27,0,0,1-3.19-.18,5,5,0,0,1-2.39-1.77,7.22,7.22,0,0,1-1.32-3.2,7.44,7.44,0,0,1,.09-3.54,5,5,0,0,1,1.61-2.49A6.27,6.27,0,0,1,6,96.54a6.27,6.27,0,0,1,3.19.18,5,5,0,0,1,2.39,1.77A7.51,7.51,0,0,1,12.9,101.76Zm-3,.55a5.49,5.49,0,0,0-.55-1.73,1.5,1.5,0,0,0-1-.75,4.47,4.47,0,0,0-1.76.06,4.3,4.3,0,0,0-1.66.57,1.45,1.45,0,0,0-.66,1,5.68,5.68,0,0,0,.1,1.82A5.55,5.55,0,0,0,4.91,105a1.44,1.44,0,0,0,1,.71,4.71,4.71,0,0,0,1.76-.07,4.77,4.77,0,0,0,1.66-.55,1.43,1.43,0,0,0,.67-1A5.25,5.25,0,0,0,9.89,102.31Z"/><path class="cls-1" d="M11.44,89.91l0,3.2L0,92.92l.11-6.64a6.62,6.62,0,0,1,.45-2.53,3.25,3.25,0,0,1,1.2-1.52,3.42,3.42,0,0,1,1.91-.49,3.69,3.69,0,0,1,1.55.34,2.41,2.41,0,0,1,1,1,4.58,4.58,0,0,1,.51,1.77h.17a2.42,2.42,0,0,1,.68-1.26,4.87,4.87,0,0,1,1.09-.69l2.88-1.36-.06,3.69L8.71,86.57A2.68,2.68,0,0,0,8,87a1.17,1.17,0,0,0-.34.58,3.52,3.52,0,0,0-.11,1l0,1.31Zm-8.52-.14,2.27,0,0-3.42a1.66,1.66,0,0,0-.19-1c-.13-.2-.44-.3-.93-.31a1.08,1.08,0,0,0-.9.28,1.66,1.66,0,0,0-.24,1Z"/><path class="cls-1" d="M12.31,76.31l-.58,3.14L.53,77.36l.59-3.14Zm1.62-8.66-.7,3.76L8.76,73.28l-.6,3.21-3-.57.59-3.18L2,69.24l.71-3.76,4.77,4.9Z"/><path class="cls-1" d="M16.68,60.63a9.12,9.12,0,0,1-1.47,2.64,4,4,0,0,1-1.94,1.34,3.92,3.92,0,0,1-2.45-.2l-.09,0,1.13-3,.34.13a.93.93,0,0,0,.6.06,1.05,1.05,0,0,0,.52-.53A10.41,10.41,0,0,0,14,59.6a12.15,12.15,0,0,0,.45-1.36.93.93,0,0,0,0-.62.6.6,0,0,0-.33-.26.51.51,0,0,0-.51,0,2.52,2.52,0,0,0-.55.78l-1.71,3.17a5,5,0,0,1-1.16,1.45,2.7,2.7,0,0,1-1.41.61,3.49,3.49,0,0,1-1.62-.23A3.27,3.27,0,0,1,6,62.44a3.2,3.2,0,0,1-.79-1.3A4.84,4.84,0,0,1,5,59.25a9.2,9.2,0,0,1,.62-2.55,8,8,0,0,1,1.54-2.63,3.75,3.75,0,0,1,2-1.14,4,4,0,0,1,2.27.23l.09,0-1.13,3-.24-.1A1.14,1.14,0,0,0,9.44,56a1.17,1.17,0,0,0-.57.55A10.19,10.19,0,0,0,8.2,58a9.06,9.06,0,0,0-.37,1.19,1.17,1.17,0,0,0,0,.63.55.55,0,0,0,.33.3.52.52,0,0,0,.3,0A.45.45,0,0,0,8.74,60,2.33,2.33,0,0,0,9,59.61l1.76-3.15a5.39,5.39,0,0,1,1.43-1.77,2.84,2.84,0,0,1,1.48-.58,3.46,3.46,0,0,1,1.43.22,3.36,3.36,0,0,1,1.5,1.14,3.7,3.7,0,0,1,.66,2.08A7.74,7.74,0,0,1,16.68,60.63Z"/><path class="cls-1" d="M25.11,38l-4.2,5.79-2.2-1.59,4.2-5.8Z"/></g></g></svg>