<svg xmlns="http://www.w3.org/2000/svg" viewBox="0 0 29.28 18.3"><defs><style>.cls-1{fill:#fff;}</style></defs><g id="Layer_2" data-name="Layer 2"><g id="Banner_4" data-name="Banner 4"><path class="cls-1" d="M0,0H8.61A7.31,7.31,0,0,1,12,.69a4,4,0,0,1,2.26,3.37,6.51,6.51,0,0,1-.07,1.65,3.28,3.28,0,0,1-1.76,2.38l-.24.14-.05,0c.29.15.59.29.87.47A4,4,0,0,1,14.82,12a5.33,5.33,0,0,1-1.2,3.91,4.92,4.92,0,0,1-3.25,1.78,14.88,14.88,0,0,1-2.11.17c-2.75,0-5.51,0-8.26,0ZM3.62,14.76h2c1.09,0,2.19,0,3.28-.07a2.06,2.06,0,0,0,2-1.73,3.84,3.84,0,0,0,0-1.22A1.66,1.66,0,0,0,10,10.39,3.21,3.21,0,0,0,8.5,10c-1.57,0-3.14,0-4.71,0l-.17,0ZM3.62,7C5.26,7,6.87,7,8.48,7a2.39,2.39,0,0,0,.64-.11,1.67,1.67,0,0,0,1.47-1.32,3.55,3.55,0,0,0,.05-.8,1.47,1.47,0,0,0-1.2-1.47,4.3,4.3,0,0,0-.87-.16c-1.62,0-3.24,0-4.86-.06l-.09,0Z"/><path class="cls-1" d="M29.28,12.24H19.57A2.94,2.94,0,0,0,22,15.42,3.22,3.22,0,0,0,24.68,15a5.51,5.51,0,0,0,.73-.79c.07-.07.17-.17.26-.17H29l.09,0a2.91,2.91,0,0,1-.46,1.27,6,6,0,0,1-4.52,2.9,7.81,7.81,0,0,1-5.26-1,5.34,5.34,0,0,1-2.61-3.7,9.49,9.49,0,0,1,.36-5.43,5.68,5.68,0,0,1,4.25-3.58,7.55,7.55,0,0,1,5.28.58,5.71,5.71,0,0,1,2.71,3.2A10.78,10.78,0,0,1,29.28,12.24ZM19.64,9.93h6A2.71,2.71,0,0,0,23,7.17,2.89,2.89,0,0,0,19.64,9.93Z"/><path class="cls-1" d="M26.46.86V3H18.73V.86Z"/></g></g></svg>