<svg xmlns="http://www.w3.org/2000/svg" viewBox="0 0 402.8 402.69"><defs><style>.cls-1{fill:#fff;}</style></defs><g id="Layer_2" data-name="Layer 2"><g id="Layer_1-2" data-name="Layer 1"><path class="cls-1" d="M402.8,92V311.46c-1.56,6.86-2.6,13.89-4.77,20.54-13.92,42.72-52,70.5-96.94,70.61q-99.67.22-199.34,0c-14.16,0-28-2.37-40.81-8.48C21.41,375.26.49,343.89.22,299.91c-.4-65-.15-130,0-195A151.22,151.22,0,0,1,1.7,84.18C6.9,47.21,37.61,13.06,73.75,4c6.82-1.71,13.82-2.7,20.73-4H308.42c4.36.71,8.78,1.16,13.06,2.18,40.69,9.72,66.87,34.67,78.19,75C401,82,401.77,87.07,402.8,92ZM77.14,118.71V284c1.26.09,2.28.21,3.29.21q37,0,73.93,0a45.92,45.92,0,0,0,9.35-1c16-3.4,29.23-10.94,36.37-26.37,5.87-12.69,6.07-26.07,3.25-39.58-1.68-8.05-4.84-15.42-12-19.94-3.76-2.36-8.29-3.49-12.1-5,11.58-4.5,17-9.81,19.11-20.43a60.64,60.64,0,0,0,.86-15.58c-1.41-21.45-15.83-36.62-38.92-37.33-26.85-.83-53.74-.34-80.61-.41C78.89,118.49,78.13,118.62,77.14,118.71ZM325.19,229.89a9.8,9.8,0,0,0,.48-1.87c.41-11.31-.28-22.52-3.85-33.36-5.53-16.78-16.15-28.51-33.67-33.09-8.46-2.22-17-2.32-25.73-1.33-18,2.06-32,10.5-40.84,26.35-9.72,17.34-12.35,36-8,55.4,2.89,13,8.94,24.26,19.8,32.46,9.65,7.28,20.8,10.18,32.64,10.84,16.35.91,32-1.46,45.16-12.08,9.48-7.63,13.24-17.95,13.09-30.06H297.59c-4.42,13.72-17.27,19.51-33.87,15.55-14-3.34-19.9-16.78-18.5-28.81Zm-22-101.49H236.85v15.29h66.34Z"/><path class="cls-1" d="M111.94,252.39V207.68h4.13c11.92,0,23.86.38,35.76-.11,10.49-.44,17.22,5.57,19.24,14.72A34,34,0,0,1,169.94,242c-2.42,6.37-7.44,10.13-14.05,10.31C141.38,252.66,126.86,252.39,111.94,252.39Z"/><path class="cls-1" d="M112.05,147.11c15.12,0,29.9-.1,44.68.07,4.43,0,7.1,3.13,8.52,7,2.39,6.62,2.06,13.34.13,20-1.34,4.66-4.5,7.66-9.26,7.74-14.61.25-29.23.09-44.07.09Z"/><path class="cls-1" d="M244.8,207.38c1.21-11.11,10.45-25.23,27.22-24.93,13.91.26,22.29,8.88,23.4,24.93Z"/></g></g></svg>