<svg xmlns="http://www.w3.org/2000/svg" viewBox="0 0 382.03 381.91"><defs><style>.cls-1{fill:#fff;}</style></defs><g id="Layer_2" data-name="Layer 2"><g id="Layer_1-2" data-name="Layer 1"><path class="cls-1" d="M0,332.68V49.24a8.5,8.5,0,0,0,.68-1.7C5.3,19.79,28,.07,55.8.05Q191,0,326.25.05a55.62,55.62,0,0,1,55.69,55.7q.12,135.2-.07,270.39c-.06,23.08-11.37,39.95-31.9,50.25-5.33,2.68-11.46,3.73-17.23,5.52h-97v-135h56.63c3.73-22.4,7.43-44.59,11.21-67.25H236V134.21h67.41V67.3c-23.77,0-47.31-1-70.73.22-37.46,1.94-63.92,31-64.05,68.48,0,13.18,0,26.35,0,39.53v4.37H124V247h44.6v135H49.24a8.42,8.42,0,0,0-1.69-.68c-19.68-3.31-33.89-14-42.33-32C2.78,344,1.7,338.21,0,332.68Z"/></g></g></svg>