<svg xmlns="http://www.w3.org/2000/svg" viewBox="0 0 29.17 29.21"><defs><style>.cls-1{fill:#fff;}</style></defs><g id="Layer_2" data-name="Layer 2"><g id="Banner_4" data-name="Banner 4"><path class="cls-1" d="M10.21,0h8.73l.51.05a32.5,32.5,0,0,1,3.28.31,7.37,7.37,0,0,1,5.82,5,11.82,11.82,0,0,1,.6,4.13c0,3.35,0,6.7,0,10a17.82,17.82,0,0,1-.28,3.18A7.43,7.43,0,0,1,24,28.51a11.33,11.33,0,0,1-4,.65c-3.08,0-6.16.06-9.24.05a19.76,19.76,0,0,1-4.54-.38A7.48,7.48,0,0,1,.93,24.61a10.52,10.52,0,0,1-.88-4.42C0,17,0,13.88,0,10.72a29.36,29.36,0,0,1,.28-4,7.47,7.47,0,0,1,3-5A8.91,8.91,0,0,1,8.1.12C8.8.07,9.5,0,10.21,0Zm4.38,26.64v0c.77,0,1.54,0,2.31,0,1.66-.06,3.33,0,5-.24a4.76,4.76,0,0,0,4.31-3.82,13.14,13.14,0,0,0,.32-2.8q.07-4,.05-8.1a39.87,39.87,0,0,0-.23-4.24A4.84,4.84,0,0,0,22.25,3a16.43,16.43,0,0,0-3.06-.27q-4.08-.06-8.16,0a31,31,0,0,0-3.86.25A4.77,4.77,0,0,0,3,6.9a15.8,15.8,0,0,0-.29,2.92c-.05,2.36-.07,4.72,0,7.07,0,1.64.06,3.28.22,4.9a4.81,4.81,0,0,0,2.46,3.9,6.31,6.31,0,0,0,3,.79C10.39,26.56,12.49,26.59,14.59,26.64Z"/><path class="cls-1" d="M7.09,14.62a7.51,7.51,0,1,1,7.52,7.5A7.51,7.51,0,0,1,7.09,14.62Zm2.64,0a4.87,4.87,0,1,0,4.86-4.86A4.85,4.85,0,0,0,9.73,14.61Z"/><path class="cls-1" d="M24.15,6.8a1.75,1.75,0,1,1-1.77-1.73A1.74,1.74,0,0,1,24.15,6.8Z"/></g></g></svg>