<svg xmlns="http://www.w3.org/2000/svg" viewBox="0 0 408.84 409.04"><defs><style>.cls-1{fill:#fff;}</style></defs><g id="Layer_2" data-name="Layer 2"><g id="Layer_1-2" data-name="Layer 1"><path class="cls-1" d="M306.64,409H102.22c-1-.27-2-.54-3.06-.79-9.12-2.25-18.7-3.39-27.29-6.92C31.15,384.59,7.45,354.11.92,310.51a103.27,103.27,0,0,1-.85-15.13C0,234.82.09,174.25,0,113.69,0,97.77,2.43,82.28,9.22,67.94,30,24,64.87.75,113.6.29,174.15-.28,234.7.18,295.25.13c11.11,0,22.09,1.09,32.66,4.47,40.35,12.87,66.3,39.78,77.57,80.65,1.54,5.59,2.26,11.4,3.36,17.11V306.81c-.68,3.9-1.17,7.84-2.07,11.68-10.61,45.29-38.21,74.48-83,87.17C318.19,407.25,312.35,407.93,306.64,409Zm-102-92.49A112,112,0,0,0,316.37,204.62c0-61.87-50.34-112.18-112.11-112A112,112,0,0,0,92.49,204.56C92.46,266.42,142.83,316.73,204.6,316.55ZM357.11,85.75a33.77,33.77,0,0,0-33.94-33.87c-18.55.07-33.89,15-33.82,33.65s14,33.91,33.79,34.08A33.54,33.54,0,0,0,357.11,85.75Z"/><path class="cls-1" d="M292.36,204.79c-.25,48.76-39.66,88-88.13,87.75-48.74-.26-88-39.68-87.73-88.15.25-48.76,39.67-88,88.13-87.75C253.38,116.89,292.62,156.31,292.36,204.79Z"/><path class="cls-1" d="M333.11,85.58a10.18,10.18,0,0,1-9.6,10.18c-5.17.16-10.29-4.86-10.27-10.07a10.22,10.22,0,0,1,10-9.82A9.81,9.81,0,0,1,333.11,85.58Z"/></g></g></svg>