<svg xmlns="http://www.w3.org/2000/svg" viewBox="0 0 383.26 383.34"><defs><style>.cls-1{fill:#fff;}</style></defs><g id="Layer_2" data-name="Layer 2"><g id="Layer_1-2" data-name="Layer 1"><path class="cls-1" d="M337.59,383.34H45.66a15.2,15.2,0,0,0-2.09-.72A52,52,0,0,1,0,331.3Q0,191.7,0,52.08A52,52,0,0,1,52.06,0Q191.64,0,331.22,0A52,52,0,0,1,380.72,36c1,3.18,1.7,6.48,2.54,9.72v292a24.06,24.06,0,0,0-.76,2.46c-4.21,20.48-16.25,34.09-36,40.88C343.63,382,340.58,382.57,337.59,383.34ZM204.92,169.86l-.94-.3c0-3.44.09-6.87,0-10.31-.17-5.66-2.72-8.12-8.4-8.14q-16.45-.06-32.92,0c-6.65,0-9.2,2.57-9.2,9.3q0,70.74,0,141.46c0,7,2.7,9.6,9.83,9.61q15.15,0,30.31,0c8,0,10.23-2.23,10.23-10.19,0-24.2-.1-48.4.06-72.6,0-9.09,2.09-17.81,7.22-25.52,5.75-8.61,14-11.94,24.15-11,10.62.94,17.95,6.56,20.56,16.71a102,102,0,0,1,3,23.56c.36,23.2.1,46.41.1,69.61,0,6.79,2.49,9.35,9.15,9.37q16.65.06,33.3,0c6.57,0,9.31-2.77,9.31-9.38,0-25.95.25-51.9-.29-77.84a196.46,196.46,0,0,0-3.6-33c-2.62-13.54-9-25.34-20.78-33.42-9.68-6.65-20.67-8.87-32.22-9.09C234.25,148.3,216.78,152.51,204.92,169.86ZM130.5,231.43q0-35.18,0-70.34c0-7.54-2.53-10-10.13-10-10.23,0-20.45,0-30.68,0-6.69,0-9.6,2.92-9.6,9.54q0,70.54,0,141.07c0,6.69,3.12,9.78,9.87,9.8,9.85,0,19.7,0,29.55,0,8.5,0,11-2.45,11-10.83Q130.51,266,130.5,231.43Zm7.34-126.85a32.6,32.6,0,0,0-32.45-32.72,32.61,32.61,0,0,0-.48,65.22A32.36,32.36,0,0,0,137.84,104.58Z"/></g></g></svg>