<?xml version="1.0" encoding="UTF-8" standalone="no"?>
<svg width="194px" height="17px" viewBox="0 0 194 17" version="1.1" xmlns="http://www.w3.org/2000/svg" xmlns:xlink="http://www.w3.org/1999/xlink">
    <!-- Generator: Sketch 49.1 (51147) - http://www.bohemiancoding.com/sketch -->
    <title>Logo/ rise weiß</title>
    <desc>Created with Sketch.</desc>
    <defs>
        <polygon id="path-1" points="0 0.189688889 119.818442 0.189688889 119.818442 12.9378754 0 12.9378754"></polygon>
        <polygon id="path-3" points="0.151483097 0.2134 67.9604325 0.2134 67.9604325 16.5515873 0.151483097 16.5515873"></polygon>
    </defs>
    <g id="Symbols" stroke="none" stroke-width="1" fill="none" fill-rule="evenodd">
        <g id="Logo/-rise-weiß">
            <g transform="translate(97.000000, 9.000000) rotate(-360.000000) translate(-97.000000, -9.000000) ">
                <g id="Group-3" transform="translate(0.000000, 0.941323)">
                    <mask id="mask-2" fill="white">
                        <use xlink:href="#path-1"></use>
                    </mask>
                    <g id="Clip-2"></g>
                    <path d="M10.8270091,3.92264921 L10.8270091,2.92031587 C10.8270091,1.09887143 9.98018373,0.189688889 8.26844167,0.189688889 L0.342155952,0.189688889 C0.113898016,0.189688889 -3.84920635e-05,0.316712698 -3.84920635e-05,0.553438889 L-3.84920635e-05,12.5741254 C-3.84920635e-05,12.8104667 0.113898016,12.9378754 0.342155952,12.9378754 L8.44781468,12.9378754 C10.1595567,12.9378754 10.9902155,12.0286929 10.9902155,10.2072484 L10.9902155,9.09559762 C10.9902155,7.60095079 10.5340845,6.78183968 9.47555278,6.49083968 C10.4035964,6.16365714 10.8270091,5.34416111 10.8270091,3.92264921 Z M7.77882262,7.21833968 C9.21457659,7.21833968 9.49171944,7.52820079 9.49171944,8.85848651 L9.49171944,9.86081984 C9.49171944,11.1914905 9.21457659,11.5013516 7.77882262,11.5013516 L1.49845754,11.5013516 L1.49845754,7.21833968 L7.77882262,7.21833968 Z M1.49845754,1.6262127 L7.5994496,1.6262127 C9.03481865,1.6262127 9.31234643,1.93607381 9.31234643,3.26635952 L9.31234643,4.14128413 C9.31234643,5.47195476 9.03481865,5.78143095 7.5994496,5.78143095 L1.49845754,5.78143095 L1.49845754,1.6262127 Z M29.092648,3.10199841 C29.092648,1.15353016 28.1969377,0.189688889 26.3708742,0.189688889 L20.5308583,0.189688889 C18.7047948,0.189688889 17.7929179,1.15353016 17.7929179,3.10199841 L17.7929179,10.0255659 C17.7929179,11.9740341 18.7047948,12.9378754 20.5308583,12.9378754 L26.3708742,12.9378754 C28.1969377,12.9378754 29.092648,11.9740341 29.092648,10.0255659 L29.092648,3.10199841 Z M27.5779853,9.80693095 C27.5779853,11.1733992 27.2519575,11.5013516 25.7834853,11.5013516 L21.085529,11.5013516 C19.6174417,11.5013516 19.291029,11.1733992 19.291029,9.80693095 L19.291029,3.32063333 C19.291029,1.95416508 19.6174417,1.6262127 21.085529,1.6262127 L25.7834853,1.6262127 C27.2519575,1.6262127 27.5779853,1.95416508 27.5779853,3.32063333 L27.5779853,9.80693095 Z M37.9319655,0.55382381 C37.9319655,0.317097619 37.818029,0.189688889 37.590156,0.189688889 L36.7756639,0.189688889 C36.5477909,0.189688889 36.4334694,0.317097619 36.4334694,0.55382381 L36.4334694,10.0255659 C36.4334694,11.9740341 37.3457313,12.9378754 39.1717948,12.9378754 L44.6203464,12.9378754 C46.4464099,12.9378754 47.3421202,11.9740341 47.3421202,10.0255659 L47.3421202,0.55382381 C47.3421202,0.317097619 47.2120171,0.189688889 47.0003107,0.189688889 L46.169652,0.189688889 C45.9579456,0.189688889 45.8274575,0.317097619 45.8274575,0.55382381 L45.8274575,9.80731587 C45.8274575,11.1733992 45.5014298,11.5013516 44.0329575,11.5013516 L39.7264655,11.5013516 C38.2583782,11.5013516 37.9319655,11.1733992 37.9319655,9.80731587 L37.9319655,0.55382381 Z M63.1962313,0.189688889 L55.1883425,0.189688889 C54.9604694,0.189688889 54.8465329,0.316712698 54.8465329,0.553438889 L54.8465329,12.5737405 C54.8465329,12.8104667 54.9604694,12.9378754 55.1883425,12.9378754 L56.0028345,12.9378754 C56.2307075,12.9378754 56.344644,12.8104667 56.344644,12.5737405 L56.344644,8.16562937 L60.3089417,8.16562937 L64.2728544,12.7011492 C64.4195091,12.8651254 64.5496123,12.9378754 64.8267552,12.9378754 L65.9996083,12.9378754 C66.1789813,12.9378754 66.2440329,12.7192405 66.0973782,12.5737405 L62.0707234,8.1290619 L63.1962313,8.1290619 C64.9079734,8.1290619 65.7547988,7.21987937 65.7547988,5.39843492 L65.7547988,2.92031587 C65.7547988,1.09887143 64.9079734,0.189688889 63.1962313,0.189688889 Z M56.344644,1.6262127 L62.4783544,1.6262127 C63.9629933,1.6262127 64.2401361,1.95416508 64.2401361,3.32101825 L64.2401361,5.03391508 C64.2401361,6.40076825 63.9629933,6.72872063 62.4783544,6.72872063 L56.344644,6.72872063 L56.344644,1.6262127 Z M81.1847274,0.189688889 L73.1768385,0.189688889 C72.9489655,0.189688889 72.834644,0.316712698 72.834644,0.553438889 L72.834644,12.5737405 C72.834644,12.8104667 72.9489655,12.9378754 73.1768385,12.9378754 L73.9913306,12.9378754 C74.2192036,12.9378754 74.3331401,12.8104667 74.3331401,12.5737405 L74.3331401,8.16562937 L78.2974377,8.16562937 L82.2613504,12.7011492 C82.4080052,12.8651254 82.5381083,12.9378754 82.8152512,12.9378754 L83.9881044,12.9378754 C84.1674774,12.9378754 84.232529,12.7192405 84.0858742,12.5737405 L80.0592194,8.1290619 L81.1847274,8.1290619 C82.8964694,8.1290619 83.7432948,7.21987937 83.7432948,5.39843492 L83.7432948,2.92031587 C83.7432948,1.09887143 82.8964694,0.189688889 81.1847274,0.189688889 Z M74.3331401,1.6262127 L80.4668504,1.6262127 C81.9514893,1.6262127 82.2286321,1.95416508 82.2286321,3.32101825 L82.2286321,5.03391508 C82.2286321,6.40076825 81.9514893,6.72872063 80.4668504,6.72872063 L74.3331401,6.72872063 L74.3331401,1.6262127 Z M101.878831,3.10199841 C101.878831,1.15353016 100.98312,0.189688889 99.1570567,0.189688889 L93.3170409,0.189688889 C91.4909774,0.189688889 90.5787155,1.15353016 90.5787155,3.10199841 L90.5787155,10.0255659 C90.5787155,11.9740341 91.4909774,12.9378754 93.3170409,12.9378754 L99.1570567,12.9378754 C100.98312,12.9378754 101.878831,11.9740341 101.878831,10.0255659 L101.878831,3.10199841 Z M100.364168,9.80693095 C100.364168,11.1733992 100.037755,11.5013516 98.5696679,11.5013516 L93.8717115,11.5013516 C92.4036242,11.5013516 92.0772115,11.1733992 92.0772115,9.80693095 L92.0772115,3.32063333 C92.0772115,1.95416508 92.4036242,1.6262127 93.8717115,1.6262127 L98.5696679,1.6262127 C100.037755,1.6262127 100.364168,1.95416508 100.364168,3.32063333 L100.364168,9.80693095 Z M109.088779,9.46011746 C108.877073,9.46011746 108.746969,9.58752619 108.746969,9.8246373 L108.746969,10.1160222 C108.746969,12.1376254 109.512192,12.9378754 111.38714,12.9378754 L117.259874,12.9378754 C118.971616,12.9378754 119.818442,12.0286929 119.818442,10.2072484 L119.818442,8.51244286 C119.818442,6.69099841 118.971616,5.78143095 117.259874,5.78143095 L112.121184,5.78143095 C110.68543,5.78143095 110.408287,5.47195476 110.408287,4.14128413 L110.408287,3.26635952 C110.408287,1.93607381 110.68543,1.6262127 112.121184,1.6262127 L116.900743,1.6262127 C117.765275,1.6262127 118.124406,2.04539127 118.124406,2.93840714 L118.124406,3.30292698 C118.124406,3.5400381 118.238342,3.66744683 118.466215,3.66744683 L119.247989,3.66744683 C119.476247,3.66744683 119.590184,3.5400381 119.590184,3.30292698 L119.590184,3.01154206 C119.590184,0.989938889 118.841128,0.189688889 116.949628,0.189688889 L111.452192,0.189688889 C109.74045,0.189688889 108.909791,1.09887143 108.909791,2.92031587 L108.909791,4.4877127 C108.909791,6.30915714 109.74045,7.21833968 111.452192,7.21833968 L116.590882,7.21833968 C118.042803,7.21833968 118.303779,7.52820079 118.303779,8.85848651 L118.303779,9.86081984 C118.303779,11.1914905 118.042803,11.5013516 116.590882,11.5013516 L111.436025,11.5013516 C110.58766,11.5013516 110.228914,11.082173 110.228914,10.1891571 L110.228914,9.8246373 C110.228914,9.58752619 110.098426,9.46011746 109.886719,9.46011746 L109.088779,9.46011746 Z" id="Fill-1" fill="#FFFFFF" mask="url(#mask-2)"></path>
                </g>
                <g id="Group-6" transform="translate(125.869048, 0.171482)">
                    <mask id="mask-4" fill="white">
                        <use xlink:href="#path-3"></use>
                    </mask>
                    <g id="Clip-5"></g>
                    <path d="M7.97043611,0.559828571 C8.03625754,0.395852381 7.97043611,0.2134 7.77335675,0.2134 L7.13361865,0.2134 C6.90382103,0.2134 6.78911468,0.30462619 6.70674167,0.523261111 L0.176178175,16.2049278 C0.110356746,16.3692889 0.176178175,16.5517413 0.372872619,16.5517413 L1.01299563,16.5517413 C1.24279325,16.5517413 1.3574996,16.4605151 1.4394877,16.2414952 L7.97043611,0.559828571 Z M20.905694,0.942824603 L12.8466107,0.942824603 C12.617198,0.942824603 12.5024917,1.07023333 12.5024917,1.30695952 L12.5024917,13.3418881 C12.5024917,13.5789992 12.617198,13.7064079 12.8466107,13.7064079 L13.6661067,13.7064079 C13.8955194,13.7064079 14.0102258,13.5789992 14.0102258,13.3418881 L14.0102258,8.9283881 L17.9999282,8.9283881 L21.9892456,13.4696817 C22.1366702,13.6336579 22.2679282,13.7064079 22.5466107,13.7064079 L23.7271623,13.7064079 C23.9076901,13.7064079 23.9731266,13.487773 23.825702,13.3418881 L19.7728726,8.89220556 L20.905694,8.89220556 C22.6285988,8.89220556 23.4808131,7.98148333 23.4808131,6.15811429 L23.4808131,3.67691587 C23.4808131,1.8531619 22.6285988,0.942824603 20.905694,0.942824603 Z M14.0102258,2.38127302 L20.1835829,2.38127302 C21.6774599,2.38127302 21.9565274,2.70961032 21.9565274,4.07800317 L21.9565274,5.79320952 C21.9565274,7.16160238 21.6774599,7.48993968 20.1835829,7.48993968 L14.0102258,7.48993968 L14.0102258,2.38127302 Z M32.114198,1.30772937 C32.114198,1.07061825 31.9994917,0.942824603 31.770079,0.942824603 L30.950198,0.942824603 C30.7207853,0.942824603 30.606079,1.07061825 30.606079,1.30772937 L30.606079,13.3418881 C30.606079,13.5789992 30.7207853,13.7064079 30.950198,13.7064079 L31.770079,13.7064079 C31.9994917,13.7064079 32.114198,13.5789992 32.114198,13.3418881 L32.114198,1.30772937 Z M39.5508647,10.2244159 C39.3376187,10.2244159 39.2067456,10.3522095 39.2067456,10.5893206 L39.2067456,10.8814754 C39.2067456,12.9053881 39.9769718,13.7064079 41.8638528,13.7064079 L47.7743091,13.7064079 C49.496829,13.7064079 50.3494282,12.7960706 50.3494282,10.9727016 L50.3494282,9.27558651 C50.3494282,7.45221746 49.496829,6.54149524 47.7743091,6.54149524 L42.6025155,6.54149524 C41.1579083,6.54149524 40.8788409,6.23163413 40.8788409,4.89942381 L40.8788409,4.02372937 C40.8788409,2.69151905 41.1579083,2.38127302 42.6025155,2.38127302 L47.4128687,2.38127302 C48.2831742,2.38127302 48.6442298,2.80083651 48.6442298,3.69500714 L48.6442298,4.0599119 C48.6442298,4.29740794 48.7589361,4.42520159 48.9883488,4.42520159 L49.7751266,4.42520159 C50.0045393,4.42520159 50.1196306,4.29740794 50.1196306,4.0599119 L50.1196306,3.76814206 C50.1196306,1.74422937 49.365571,0.942824603 47.4621385,0.942824603 L41.9292893,0.942824603 C40.2067694,0.942824603 39.3707218,1.8531619 39.3707218,3.67691587 L39.3707218,5.2462373 C39.3707218,7.06960635 40.2067694,7.97994365 41.9292893,7.97994365 L47.1010829,7.97994365 C48.5622417,7.97994365 48.8247575,8.29018968 48.8247575,9.6224 L48.8247575,10.6258881 C48.8247575,11.9580984 48.5622417,12.2679595 47.1010829,12.2679595 L41.9131226,12.2679595 C41.0593687,12.2679595 40.6983131,11.848396 40.6983131,10.9542254 L40.6983131,10.5893206 C40.6983131,10.3522095 40.5670552,10.2244159 40.3538091,10.2244159 L39.5508647,10.2244159 Z M57.7857099,0.942824603 C57.5562972,0.942824603 57.4415909,1.07023333 57.4415909,1.30695952 L57.4415909,13.342273 C57.4415909,13.5789992 57.5562972,13.7064079 57.7857099,13.7064079 L67.6158131,13.7064079 C67.829444,13.7064079 67.960702,13.5789992 67.960702,13.342273 L67.960702,12.6324794 C67.960702,12.3957532 67.829444,12.2679595 67.6158131,12.2679595 L58.9497099,12.2679595 L58.9497099,7.97994365 L66.3194004,7.97994365 C66.5326464,7.97994365 66.6639044,7.85253492 66.6639044,7.61580873 L66.6639044,6.90601508 C66.6639044,6.66928889 66.5326464,6.54149524 66.3194004,6.54149524 L58.9497099,6.54149524 L58.9497099,2.38127302 L67.6158131,2.38127302 C67.829444,2.38127302 67.960702,2.25386429 67.960702,2.0171381 L67.960702,1.30695952 C67.960702,1.07023333 67.829444,0.942824603 67.6158131,0.942824603 L57.7857099,0.942824603 Z" id="Fill-4" fill="#FFFFFF" mask="url(#mask-4)"></path>
                </g>
            </g>
        </g>
    </g>
</svg>